<svg width="226" height="226" viewBox="0 0 226 226" fill="none" xmlns="http://www.w3.org/2000/svg">
<path fill-rule="evenodd" clip-rule="evenodd" d="M0 155V71H28V28H70V0H106.667V58.3607C79.274 61.5013 58 84.7663 58 113C58 141.234 79.274 164.499 106.667 167.639V226H70V198H28V155H0ZM119.333 167.639C117.255 167.878 115.142 168 113 168C110.858 168 108.745 167.878 106.667 167.639V167.111C99.7 167.111 94 161.811 94 155.333V124.24C94 121.884 96.0267 120 98.56 120C101.093 120 103.12 121.884 103.12 124.24V143.556H108.44V124.24C108.44 121.884 110.467 120 113 120C115.533 120 117.56 121.884 117.56 124.24V143.556H122.88V124.24C122.88 121.884 124.907 120 127.44 120C129.973 120 132 121.884 132 124.24V155.333C132 161.811 126.3 167.111 119.333 167.111V167.639ZM119.333 167.639C146.726 164.499 168 141.234 168 113C168 84.7663 146.726 61.5013 119.333 58.3607V0H155V28H198V70H226V156H198V198H156V226H119.333V167.639ZM119.333 58.3607V59.4778C126.68 62.8344 132 71.55 132 81.9733C132 95.2233 123.513 106 113 106C102.55 106 94.0633 95.2233 94 81.9733C94 71.55 99.32 62.8344 106.667 59.4778V58.3607C108.745 58.1224 110.858 58 113 58C115.142 58 117.255 58.1224 119.333 58.3607Z" fill="white"/>
</svg>
